<svg xmlns="http://www.w3.org/2000/svg" width="54.362" height="108.475" viewBox="0 0 54.362 108.475"><defs><style>.a{fill:#9a9a9a;}</style></defs><g transform="translate(-1420.353 -458.612)"><g transform="translate(1936.695 -904.702) rotate(90)"><g transform="translate(1451.314 480.386)"><g transform="translate(0)"><path class="a" d="M317.673,42.651H300.124a1.463,1.463,0,1,0,0,2.925h17.549a1.463,1.463,0,0,0,0-2.925Z" transform="translate(-298.661 -42.651)"/></g></g><g transform="translate(1463.014 474.539)"><path class="a" d="M392.337,6.278l-5.85-5.85A1.462,1.462,0,0,0,384.42,2.5l4.814,4.814-4.817,4.817a1.463,1.463,0,0,0,2.071,2.068l5.85-5.85A1.463,1.463,0,0,0,392.337,6.278Z" transform="translate(-383.989 0)"/></g></g><g transform="translate(1936.694 -954.678) rotate(90)"><g transform="translate(1413.291 480.386)"><g transform="translate(0)"><path class="a" d="M40.34,42.651H22.79a1.463,1.463,0,0,0,0,2.925H40.34a1.463,1.463,0,0,0,0-2.925Z" transform="translate(-21.328 -42.651)"/></g></g><g transform="translate(1413.29 474.539)"><g transform="translate(0 0)"><path class="a" d="M24.854,7.309l4.814-4.814A1.462,1.462,0,0,0,27.6.427l-5.85,5.85a1.464,1.464,0,0,0,0,2.068l5.85,5.85a1.469,1.469,0,0,0,1.035.427,1.448,1.448,0,0,0,1.033-.43,1.464,1.464,0,0,0,0-2.068Z" transform="translate(-21.323 0.001)"/></g></g></g><g transform="translate(1420.353 483.312)"><path class="a" d="M121.344,84.458a5.83,5.83,0,0,0-3.253.989,5.85,5.85,0,0,0-8.775-2.925,5.864,5.864,0,0,0-5.522-3.914,5.8,5.8,0,0,0-2.925.787V69.834a5.85,5.85,0,0,0-11.7,0V94.7l-5.083-3.811a7.668,7.668,0,0,0-9.971.708,4.39,4.39,0,0,0,0,6.2l20.828,20.831a13.082,13.082,0,0,0,9.31,3.855h6.853A16.106,16.106,0,0,0,127.194,106.4V90.308A5.856,5.856,0,0,0,121.344,84.458Zm2.925,21.937a13.178,13.178,0,0,1-13.162,13.162h-6.853a10.172,10.172,0,0,1-7.242-3L76.183,95.728a1.464,1.464,0,0,1,0-2.068,4.733,4.733,0,0,1,6.151-.436l7.421,5.566a1.462,1.462,0,0,0,2.34-1.17V69.834a2.925,2.925,0,0,1,5.85,0V91.771a1.463,1.463,0,1,0,2.925,0V84.458a2.925,2.925,0,0,1,5.85,0v7.312a1.463,1.463,0,1,0,2.925,0V87.383a2.925,2.925,0,0,1,5.85,0v4.387a1.463,1.463,0,1,0,2.925,0V90.308a2.925,2.925,0,0,1,5.85,0Z" transform="translate(-72.832 -63.984)"/></g></g></svg>