<svg xmlns="http://www.w3.org/2000/svg" width="68" height="68" viewBox="0 0 68 68"><defs><style>.a{fill:#30c702;}.b{fill:#fff;}</style></defs><g transform="translate(-700 -171)"><rect class="a" width="68" height="68" rx="17" transform="translate(700 171)"/><circle class="b" cx="16" cy="16" r="16" transform="translate(718 189)"/><g transform="translate(723.492 154.268)"><path class="a" d="M20.606,45.993,10.713,42.5a.615.615,0,0,0-.41,0L.411,45.993a.616.616,0,0,0,0,1.161L10.3,50.671a.615.615,0,0,0,.412,0l9.893-3.517a.616.616,0,0,0,0-1.161Z" transform="translate(0)"/><path class="a" d="M432.7,203.1v-5.371l-1.231.438V203.1a1.236,1.236,0,0,0,0,2.144v3.026a.616.616,0,1,0,1.231,0v-3.026a1.236,1.236,0,0,0,0-2.144Z" transform="translate(-413.163 -148.893)"/><path class="a" d="M111.624,224.5a1.842,1.842,0,0,1-.619-.107l-5.561-1.977v2.709c0,.663.692,1.223,2.055,1.666a14.515,14.515,0,0,0,8.249,0c1.364-.443,2.055-1,2.055-1.666v-2.709l-5.561,1.977A1.843,1.843,0,0,1,111.624,224.5Z" transform="translate(-101.116 -172.558)"/></g></g></svg>