<svg xmlns="http://www.w3.org/2000/svg" width="260" height="71.553" viewBox="0 0 221.796 71.553"><defs><style>.a,.b{fill:#085CA4;}.b{font-size:28px;font-family:OpenSans-Bold, Open Sans;font-weight:700;}</style></defs><g transform="translate(-51 84)"><g transform="translate(51 -84)"><path class="a" d="M855.628,13.877c-1.083-.383-2.162-.784-3.276-1.079-.5-.132-1-.257-1.5-.364a1.066,1.066,0,0,1-.712-.5,33.158,33.158,0,0,0-5.763-6.774c-.22-.2-.336-.179-.54.006a33.146,33.146,0,0,0-10.5,18.721,30.852,30.852,0,0,0-.537,5.788c0,.781-.019.766-.747,1.017-.878.3-1.748.634-2.62.957-.524.195-.524.2-.54-.348A37.245,37.245,0,0,1,843.847.132c.151-.113.254-.216.48-.047a37.1,37.1,0,0,1,11.266,13.6c.022.044.041.091.06.138a.455.455,0,0,1-.025.053" transform="translate(-807.237 0.005)"/><path class="a" d="M766.168,149.54a31.96,31.96,0,0,0,1.155,4.985.886.886,0,0,1-.075.753,33.364,33.364,0,0,0-3.024,8.458c-.057.257.047.311.251.38a31.608,31.608,0,0,0,8.612,1.647,33.217,33.217,0,0,0,11.922-1.522,32.247,32.247,0,0,0,6.56-2.927.5.5,0,0,1,.706.063c.9.8,1.836,1.572,2.783,2.375a37.063,37.063,0,0,1-24.13,5.745,38.932,38.932,0,0,1-10.629-2.748.5.5,0,0,1-.376-.627,36.125,36.125,0,0,1,3.348-11.618,34.658,34.658,0,0,1,2.717-4.744c.038-.056.091-.11.182-.22" transform="translate(-759.914 -102.622)"/><path class="a" d="M932.041,143.194c.671-.6,1.3-1.139,1.908-1.694a24.163,24.163,0,0,0,1.8-1.785.939.939,0,0,1,.712-.339,32.955,32.955,0,0,0,7.185-1.145c.568-.16,1.126-.358,1.691-.53.185-.056.257-.135.21-.345a33.28,33.28,0,0,0-11.455-18.918,29.6,29.6,0,0,0-4.668-3.194.344.344,0,0,1-.2-.417c.179-1.208.471-2.4.612-3.611.031-.26.179-.1.263-.053a30.948,30.948,0,0,1,2.752,1.572,36.95,36.95,0,0,1,16.114,22.194,37.634,37.634,0,0,1,.91,4.857.384.384,0,0,1-.27.48,37.218,37.218,0,0,1-8.659,2.554,36.431,36.431,0,0,1-8.9.376" transform="translate(-876.096 -76.222)"/><path class="a" d="M872.374,154.19a17.007,17.007,0,0,1,1.246,1.657c.445.656.857,1.333,1.293,2a.864.864,0,0,1,.082.878,28.7,28.7,0,0,1-13.563,15.285,28.21,28.21,0,0,1-15.492,3.288,28.511,28.511,0,0,1-11.257-3.141c-.085-.044-.2-.06-.251-.182.81-.22,1.622-.417,2.422-.659.985-.3,1.964-.627,2.94-.96a1.01,1.01,0,0,1,.659-.009,25.157,25.157,0,0,0,9.224,1.057,24.574,24.574,0,0,0,14.576-6,24.918,24.918,0,0,0,8.007-12.923c.019-.072.035-.147.06-.217,0-.019.028-.034.056-.069" transform="translate(-811.051 -105.813)"/><path class="a" d="M796.872,100.462c-.8.088-1.6.191-2.4.254-.678.053-1.362.041-2.039.091a.871.871,0,0,1-.8-.373,29.617,29.617,0,0,1-2.981-4.449A28.016,28.016,0,0,1,785.2,80.64a28.52,28.52,0,0,1,13.158-22.8c.085-.056.169-.107.257-.16a.881.881,0,0,1,.113-.038c-.195.722-.383,1.418-.568,2.118a24.422,24.422,0,0,0-.656,3.1,1.687,1.687,0,0,1-.59,1.054,24.989,24.989,0,0,0-7.778,20.352,24.638,24.638,0,0,0,7.116,15.455,8.893,8.893,0,0,0,.718.6,1.614,1.614,0,0,0-.1.141" transform="translate(-777.223 -39.555)"/><path class="a" d="M890.565,71.318A34.846,34.846,0,0,0,886.86,67.8a2.3,2.3,0,0,1-.841-1.362,25.049,25.049,0,0,0-26.68-19,27.621,27.621,0,0,0-4.816.91c-.1-.107.009-.195.041-.273a31.253,31.253,0,0,1,1.914-3.972.49.49,0,0,1,.376-.267,28.964,28.964,0,0,1,30.7,15.543A27.714,27.714,0,0,1,890.6,71.2a.53.53,0,0,1-.038.122" transform="translate(-824.813 -29.796)"/><path class="a" d="M891.2,69.98a19.962,19.962,0,0,1,4.333,2.842.526.526,0,0,1,.179.351,32.936,32.936,0,0,1,.267,7.053,37.145,37.145,0,0,1-10.366,23.552c-.172.182-.276.195-.489.053-.9-.606-1.754-1.268-2.595-1.955-.213-.176-.242-.267-.038-.48a37.42,37.42,0,0,0,3.872-4.687,33.349,33.349,0,0,0,4.888-26.4c-.019-.082-.025-.166-.05-.326" transform="translate(-843.935 -48.023)"/><path class="a" d="M803.857,111.1a22.838,22.838,0,0,1,.279-5.083.686.686,0,0,1,.295-.417,31.544,31.544,0,0,1,5.2-3.344,35.872,35.872,0,0,1,9.983-3.548,37.045,37.045,0,0,1,12-.427,41.243,41.243,0,0,1,4.229.781c.317.075.433.195.386.558-.141,1.136-.245,2.278-.474,3.385q-18.057-4.273-31.9,8.094" transform="translate(-790.05 -67.241)"/><path class="a" d="M859.812,145.948a21.1,21.1,0,0,1-3,1.675c-.264.122-.527.238-.794.345-1.048.424-1.048.42-2.061-.044a37.456,37.456,0,0,1-12.019-8.6,36.923,36.923,0,0,1-8.581-15.157c-.066-.232-.031-.323.185-.424.972-.442,1.942-.885,2.949-1.242.317-.113.433-.075.53.276a32.738,32.738,0,0,0,7.062,13.1,33.19,33.19,0,0,0,13.578,9.324c.69.257,1.4.48,2.152.74" transform="translate(-810.292 -84.03)"/></g><text class="b" transform="translate(138.796 -37.723)"><tspan x="0" y="0">LIFOLOGY</tspan></text></g></svg>